<svg xmlns="http://www.w3.org/2000/svg" width="70" height="45" viewBox="0 0 70 45"><defs><style>.a{fill:#e7246b;}.b{fill:#fff;}</style></defs><g transform="translate(-733 -516)"><rect class="a" width="70" height="45" rx="22.5" transform="translate(733 516)"/><path class="b" d="M18.627,1.762A5.44,5.44,0,0,0,14.581,0,5.09,5.09,0,0,0,11.4,1.1a6.5,6.5,0,0,0-1.285,1.342A6.5,6.5,0,0,0,8.831,1.1,5.089,5.089,0,0,0,5.652,0,5.441,5.441,0,0,0,1.605,1.762,6.324,6.324,0,0,0,0,6.08,7.53,7.53,0,0,0,2.007,11.01,42.79,42.79,0,0,0,7.03,15.724c.7.593,1.485,1.266,2.3,1.982a1.188,1.188,0,0,0,1.564,0c.819-.716,1.609-1.389,2.3-1.983a42.765,42.765,0,0,0,5.023-4.714A7.53,7.53,0,0,0,20.232,6.08a6.323,6.323,0,0,0-1.605-4.319Zm0,0" transform="translate(757.452 530.087)"/></g></svg>